<?xml version="1.0" encoding="UTF-8" standalone="no"?>
<svg
   width="23.352716"
   height="32"
   viewBox="0 0 23.352724 31.999999"
   version="1.1"
   id="svg3"
   sodipodi:docname="icon 8 no bg white bottom.svg"
   inkscape:version="1.4.2 (f4327f4, 2025-05-13)"
   xmlns:inkscape="http://www.inkscape.org/namespaces/inkscape"
   xmlns:sodipodi="http://sodipodi.sourceforge.net/DTD/sodipodi-0.dtd"
   xmlns="http://www.w3.org/2000/svg"
   xmlns:svg="http://www.w3.org/2000/svg">
  <defs
     id="defs3" />
  <sodipodi:namedview
     id="namedview3"
     pagecolor="#ffffff"
     bordercolor="#000000"
     borderopacity="0.25"
     inkscape:showpageshadow="2"
     inkscape:pageopacity="0.0"
     inkscape:pagecheckerboard="0"
     inkscape:deskcolor="#d1d1d1"
     inkscape:zoom="45.254834"
     inkscape:cx="6.2092814"
     inkscape:cy="14.794"
     inkscape:window-width="2560"
     inkscape:window-height="1377"
     inkscape:window-x="1912"
     inkscape:window-y="-8"
     inkscape:window-maximized="1"
     inkscape:current-layer="svg3" />
  <path
     d="m 10.235096,1.6323453 c -2.1949499,0.3092 -4.4215799,1.42673 -5.9020299,2.96212 -0.92006,0.95421 -1.51473,1.90313 -2.07365,3.30897 -0.20513,0.516 -0.49974,1.59616 -0.57377,2.1036797 l -0.034,0.23275 1.74473,-0.0314 c 0.95963,-0.0172 2.29982,-0.0314 2.97828,-0.0314 l 1.23348,-4e-5 0.0589,-0.2249897 c 0.10544,-0.40289 0.4693,-1.07125 0.75519,-1.38728 0.8242,-0.91102 1.8195399,-1.39732 2.9749599,-1.45349 0.60945,-0.0296 0.99727,0.0251 1.61269,0.22764 1.20933,0.39796 2.2326,1.40849 2.60025,2.56785 l 0.10207,0.3218497 2.95308,-0.003 c 1.62419,-0.002 2.96372,-0.0138 2.9767,-0.0268 0.0403,-0.0403 -0.22958,-1.2951097 -0.38105,-1.7716997 -0.18193,-0.5725 -0.73752,-1.73081 -1.12572,-2.34708 -0.98544,-1.56433 -2.34633,-2.7512 -4.10008,-3.57579 -0.93725,-0.44063 -1.28752,-0.55331 -2.53403,-0.81491 -0.60855,-0.1277 -2.52622,-0.16109 -3.26601,-0.0569"
     id="path4"
     style="fill:#ff4c4d;fill-opacity:1;stroke-width:0.0473651" />
  <path
     d="m 10.295966,0.06607532 c -2.2834799,0.29381 -4.2680299,1.12695998 -6.0254199,2.52952998 -1.74711,1.39443 -2.98566,3.19914 -3.71829998,5.418 -0.58004,1.75682 -0.71034,3.8269197 -0.35681,5.6683797 0.36027,1.87656 1.07471998,3.51444 2.85109998,6.53638 0.5556,0.94523 0.69366,1.17182 1.86131,3.05506 1.24864,2.01387 2.0223,3.13074 3.7346,5.39162 2.7099499,3.57805 2.4158999,3.21936 2.7051099,3.3003 0.24848,0.0696 0.55957,0.0319 0.7641,-0.0924 0.29286,-0.17809 2.85559,-3.47026 4.55557,-5.8523 2.26103,-3.16811 5.04728,-8.01332 5.90047,-10.26075 0.53314,-1.40438 0.78418,-2.75475 0.78498,-4.22298 8e-4,-1.6105597 -0.35794,-3.2901697 -0.99912,-4.6770197 -1.00438,-2.17236 -2.22052,-3.6159 -4.11593,-4.88548 -1.49859,-1.00379998 -3.39751,-1.70153998 -5.2563,-1.93131998 -0.54053,-0.0668 -2.09046,-0.0535 -2.68536,0.023 m -0.0609,1.56627998 c -2.1949599,0.3092 -4.4215899,1.42672 -5.9020299,2.96211 -0.92007,0.95422 -1.51474,1.90313 -2.07365,3.30898 -0.20514,0.516 -0.49975,1.59616 -0.57378,2.1036797 l -0.034,0.23275 1.74474,-0.0314 c 0.95962,-0.0172 2.29981,-0.0314 2.97828,-0.0314 l 1.23348,-5e-5 0.0589,-0.2249797 c 0.10544,-0.40289 0.46929,-1.07126 0.75519,-1.38728 0.8242,-0.91103 1.8195299,-1.39732 2.9749599,-1.4535 0.60944,-0.0296 0.99727,0.0251 1.61268,0.22764 1.20933,0.39796 2.2326,1.4085 2.60025,2.56786 l 0.10207,0.3218497 2.95308,-0.003 c 1.62419,-0.002 2.96373,-0.0138 2.9767,-0.0268 0.0403,-0.0403 -0.22957,-1.2951197 -0.38104,-1.7716997 -0.18193,-0.5725 -0.73752,-1.73081 -1.12573,-2.34709 -0.98543,-1.56432 -2.34633,-2.7512 -4.10007,-3.57578 -0.93726,-0.44064 -1.28753,-0.55332 -2.53403,-0.81491 -0.60855,-0.1277 -2.52623,-0.1611 -3.26602,-0.0569 m 0.78413,7.05707 c -0.92239,0.22318 -1.7116299,0.99211 -1.9400299,1.8901497 -0.18794,0.73914 -0.13968,1.31055 0.16147,1.91109 0.43747,0.87228 1.2400199,1.3994 2.2237399,1.46055 1.3394,0.0833 2.49004,-0.81454 2.77532,-2.16548 0.23881,-1.1309 -0.37565,-2.3672197 -1.42678,-2.8708097 -0.59131,-0.28329 -1.22543,-0.363 -1.79372,-0.2255 m 0.25573,1.5403197 c -0.23697,0.0935 -0.48246,0.30062 -0.60571,0.51093 -0.1061,0.18102 -0.12618,0.27163 -0.1266,0.57174 -8e-4,0.70356 0.39658,1.11042 1.08754,1.11269 0.73142,0.002 1.21667,-0.513 1.1434,-1.21434 -0.0349,-0.33393 -0.10567,-0.47943 -0.34614,-0.71204 -0.29125,-0.28173 -0.81223,-0.40331 -1.15249,-0.26898 m -9.7098499,1.8451 c 0,0.36007 0.17884,1.46406 0.33596,2.07389 0.16648,0.6461 0.53616,1.65521 0.84409,2.30412 0.32611,0.68727 2.00795,3.60411 3.01806,5.23432 l 0.39649,0.6399 1.46567,-1.45444 c 1.42924,-1.41834 1.465,-1.45837 1.44,-1.61259 -0.0574,-0.3533 0.21068,-0.83093 0.57069,-1.01707 0.21258,-0.10994 0.5819299,-0.0989 0.8197999,0.0246 0.20178,0.10472 0.40194,0.37707 0.4647,0.63236 0.0256,0.10397 0.19264,0.21916 0.95,0.65497 l 0.91893,0.52879 0.23076,-0.0392 c 0.22295,-0.0379 0.26066,-0.0705 1.11318,-0.96284 2.96023,-3.09849 3.00148,-3.14405 3.03668,-3.35223 0.0501,-0.29674 0.27059,-0.56644 0.57818,-0.70725 0.45267,-0.20723 0.88435,-0.0738 1.15818,0.35798 0.11021,0.17379 0.13636,0.26819 0.13636,0.49227 0,0.15252 -0.0309,0.337 -0.0686,0.40999 -0.1422,0.275 -0.53935,0.52443 -0.83666,0.52543 -0.042,1.3e-4 -0.5419,0.48516 -1.11086,1.07784 -0.5689,0.59268 -1.45382,1.50384 -1.96645,2.02485 -0.86286,0.87697 -0.93386,0.96213 -0.95669,1.14728 -0.0554,0.44851 -0.46711,0.81923 -0.90775,0.81734 -0.4161,-0.002 -0.74827,-0.21457 -0.89927,-0.57601 -0.063,-0.15077 -0.15673,-0.22068 -0.72459,-0.54067 -0.3587,-0.20211 -0.78735,-0.44988 -0.95251,-0.55062 l -0.3003,-0.18312 -0.22072,0.19818 c -0.4136399,0.37139 -2.9789399,2.9219 -3.1048299,3.08693 l -0.12543,0.16444 0.418,0.61007 c 0.22991,0.33553 0.55393,0.80189 0.72009,1.03635 0.16616,0.23446 0.49663,0.70337 0.7344,1.04203 0.74785,1.06519 2.9066999,3.93188 2.9361599,3.89891 0.24905,-0.27893 0.93679,-1.14989 1.24599,-1.57801 0.22579,-0.31262 0.68963,-0.94139 1.03071,-1.39728 1.8427,-2.46265 3.07931,-4.3142 4.55539,-6.82058 1.82375,-3.09673 2.51855,-4.56074 2.92878,-6.17115 0.14654,-0.5753 0.3038,-1.5774 0.30446,-1.94012 l 5.2e-4,-0.27236 h -2.95942 -2.95942 l -0.0264,0.13026 c -0.13007,0.64052 -0.32384,1.08225 -0.72266,1.64712 -0.61527,0.87152 -1.35871,1.42882 -2.24434,1.68242 -0.50553,0.14474 -1.45307,0.17884 -1.98346,0.0714 -0.72687,-0.14722 -1.5008199,-0.53201 -2.0453299,-1.0168 -0.62091,-0.55279 -1.16807,-1.54144 -1.25987,-2.27632 l -0.0327,-0.26178 -2.97197,-0.0122 -2.97197,-0.0122 v 0.2408"
     stroke="none"
     fill="#1a222a"
     fill-rule="evenodd"
     id="path2"
     style="stroke-width:0.0473651;fill:#000000;fill-opacity:1" />
  <path
     style="fill:#ffffff;fill-opacity:1;fill-rule:evenodd;stroke-width:0.0470668"
     d="M 11.063875,29.245495 C 9.9942861,27.844991 9.0706858,26.586229 8.1697756,25.301165 6.8836319,23.466601 6.9063234,23.501907 6.955592,23.411939 c 0.067801,-0.123808 3.299335,-3.325687 3.356489,-3.325687 0.05352,0 1.267188,0.692372 1.674579,0.955315 0.140204,0.09049 0.264559,0.214332 0.31636,0.315048 0.304449,0.591938 1.051266,0.720405 1.527546,0.262767 0.146409,-0.140678 0.211136,-0.248961 0.269211,-0.450373 0.04205,-0.145841 0.112096,-0.310767 0.155653,-0.366504 0.195954,-0.250743 3.75575,-3.883703 3.848537,-3.927634 0.05722,-0.02709 0.189852,-0.07252 0.294741,-0.100954 0.123211,-0.0334 0.266508,-0.125063 0.404871,-0.258982 0.177051,-0.171366 0.219541,-0.243661 0.245202,-0.417207 0.06904,-0.466873 -0.112578,-0.86841 -0.489283,-1.081777 -0.491542,-0.278412 -1.229856,0.05659 -1.390683,0.631007 -0.06954,0.248385 -0.297703,0.519824 -1.502613,1.787644 -2.391461,2.516322 -2.489169,2.607456 -2.795506,2.607456 -0.09858,0 -1.494947,-0.780902 -1.78378,-0.99756 -0.07612,-0.0571 -0.15172,-0.156876 -0.167996,-0.221725 -0.133242,-0.530879 -0.776195,-0.829757 -1.2864184,-0.597995 -0.3297597,0.149789 -0.5920906,0.568032 -0.5938225,0.946751 -9.197e-4,0.201131 -0.016717,0.228862 -0.3021057,0.53033 -0.381972,0.403493 -2.5233096,2.524069 -2.5638052,2.538948 -0.033912,0.01246 -0.042474,-0.0011 -0.9155803,-1.447448 C 4.462808,19.477403 3.3724673,17.583167 2.9804323,16.83798 2.465745,15.859654 2.0138157,14.614892 1.8146943,13.627157 1.7113974,13.114755 1.5688932,12.143728 1.5688932,11.952261 c 0,-0.08451 0.055346,-0.08613 2.9545329,-0.08613 h 2.9545331 l 0.051815,0.313751 c 0.1420772,0.860311 0.7458668,1.8518 1.4643929,2.404693 0.5103468,0.392703 1.2431449,0.727003 1.8483419,0.843209 0.386186,0.07415 1.10516,0.08077 1.581213,0.01456 0.761779,-0.105953 1.477632,-0.481233 2.096874,-1.099268 0.690598,-0.689253 1.10825,-1.432696 1.298395,-2.311217 l 0.0263,-0.121534 h 2.938071 2.93807 l -2.39e-4,0.209922 c -4.03e-4,0.353447 -0.172021,1.40393 -0.329369,2.016091 -0.275187,1.070611 -0.579996,1.827502 -1.301549,3.231967 -1.258358,2.449328 -3.269515,5.709904 -5.047265,8.182847 -1.214442,1.689352 -3.314958,4.478784 -3.372643,4.478784 -0.0041,0 -0.276993,-0.353001 -0.606496,-0.784446 z"
     id="path1" />
  <path
     style="fill:#ffffff;fill-opacity:1;fill-rule:evenodd;stroke-width:0.0235334"
     d="M 11.346854,13.92929 C 11.094306,13.903544 10.775273,13.819646 10.533416,13.715376 9.7634944,13.383445 9.1625755,12.613353 9.0148743,11.769329 8.9241527,11.250908 9.0416735,10.536292 9.2951196,10.065223 9.6074701,9.484671 10.14658,9.0108179 10.750627,8.7858977 c 0.511144,-0.1903271 1.110984,-0.1944055 1.671962,-0.011368 0.235757,0.076923 0.50522,0.205845 0.697031,0.3334875 0.20722,0.1378965 0.527894,0.4582403 0.676324,0.6756281 0.354296,0.5188957 0.53241,1.1723007 0.470219,1.7249867 -0.147341,1.309406 -1.116704,2.291962 -2.390108,2.422638 -0.248032,0.02545 -0.260569,0.02541 -0.529201,-0.002 z m 0.613421,-1.532947 c 0.395948,-0.09335 0.691822,-0.373692 0.792808,-0.751178 0.03606,-0.134798 0.0389,-0.453099 0.0055,-0.612107 -0.03943,-0.187471 -0.123625,-0.339633 -0.270276,-0.488467 -0.250102,-0.253822 -0.530613,-0.369255 -0.895141,-0.368358 -0.170276,4.19e-4 -0.237659,0.01062 -0.335187,0.05075 -0.269247,0.110778 -0.509824,0.333303 -0.636131,0.588397 l -0.08149,0.164582 4.79e-4,0.299457 c 6.78e-4,0.424464 0.06761,0.629756 0.277769,0.851968 0.117523,0.124263 0.273145,0.212863 0.462005,0.263033 0.158653,0.04215 0.504962,0.04313 0.679712,0.0019 z"
     id="path3" />
</svg>
